G04 #@! TF.GenerationSoftware,KiCad,Pcbnew,(5.1.5)-3*
G04 #@! TF.CreationDate,2020-05-16T18:01:42+03:00*
G04 #@! TF.ProjectId,STTS22H_Breakout_Board,53545453-3232-4485-9f42-7265616b6f75,rev?*
G04 #@! TF.SameCoordinates,Original*
G04 #@! TF.FileFunction,Copper,L1,Top*
G04 #@! TF.FilePolarity,Positive*
%FSLAX46Y46*%
G04 Gerber Fmt 4.6, Leading zero omitted, Abs format (unit mm)*
G04 Created by KiCad (PCBNEW (5.1.5)-3) date 2020-05-16 18:01:42*
%MOMM*%
%LPD*%
G04 APERTURE LIST*
%ADD10R,0.250000X0.400000*%
%ADD11R,1.450000X0.650000*%
%ADD12R,1.700000X1.700000*%
%ADD13O,1.700000X1.700000*%
%ADD14C,0.100000*%
%ADD15C,0.800000*%
%ADD16C,0.250000*%
%ADD17C,0.254000*%
G04 APERTURE END LIST*
D10*
X124385000Y-146780000D03*
X125035000Y-146780000D03*
X125685000Y-146780000D03*
D11*
X125010000Y-147580000D03*
D10*
X125685000Y-148380000D03*
X125035000Y-148380000D03*
X124385000Y-148380000D03*
D12*
X118340000Y-153770000D03*
D13*
X120880000Y-153770000D03*
X123420000Y-153770000D03*
X125960000Y-153770000D03*
X128500000Y-153770000D03*
X131040000Y-153770000D03*
G04 #@! TA.AperFunction,SMDPad,CuDef*
D14*
G36*
X119767691Y-148016053D02*
G01*
X119788926Y-148019203D01*
X119809750Y-148024419D01*
X119829962Y-148031651D01*
X119849368Y-148040830D01*
X119867781Y-148051866D01*
X119885024Y-148064654D01*
X119900930Y-148079070D01*
X119915346Y-148094976D01*
X119928134Y-148112219D01*
X119939170Y-148130632D01*
X119948349Y-148150038D01*
X119955581Y-148170250D01*
X119960797Y-148191074D01*
X119963947Y-148212309D01*
X119965000Y-148233750D01*
X119965000Y-148671250D01*
X119963947Y-148692691D01*
X119960797Y-148713926D01*
X119955581Y-148734750D01*
X119948349Y-148754962D01*
X119939170Y-148774368D01*
X119928134Y-148792781D01*
X119915346Y-148810024D01*
X119900930Y-148825930D01*
X119885024Y-148840346D01*
X119867781Y-148853134D01*
X119849368Y-148864170D01*
X119829962Y-148873349D01*
X119809750Y-148880581D01*
X119788926Y-148885797D01*
X119767691Y-148888947D01*
X119746250Y-148890000D01*
X119233750Y-148890000D01*
X119212309Y-148888947D01*
X119191074Y-148885797D01*
X119170250Y-148880581D01*
X119150038Y-148873349D01*
X119130632Y-148864170D01*
X119112219Y-148853134D01*
X119094976Y-148840346D01*
X119079070Y-148825930D01*
X119064654Y-148810024D01*
X119051866Y-148792781D01*
X119040830Y-148774368D01*
X119031651Y-148754962D01*
X119024419Y-148734750D01*
X119019203Y-148713926D01*
X119016053Y-148692691D01*
X119015000Y-148671250D01*
X119015000Y-148233750D01*
X119016053Y-148212309D01*
X119019203Y-148191074D01*
X119024419Y-148170250D01*
X119031651Y-148150038D01*
X119040830Y-148130632D01*
X119051866Y-148112219D01*
X119064654Y-148094976D01*
X119079070Y-148079070D01*
X119094976Y-148064654D01*
X119112219Y-148051866D01*
X119130632Y-148040830D01*
X119150038Y-148031651D01*
X119170250Y-148024419D01*
X119191074Y-148019203D01*
X119212309Y-148016053D01*
X119233750Y-148015000D01*
X119746250Y-148015000D01*
X119767691Y-148016053D01*
G37*
G04 #@! TD.AperFunction*
G04 #@! TA.AperFunction,SMDPad,CuDef*
G36*
X119767691Y-149591053D02*
G01*
X119788926Y-149594203D01*
X119809750Y-149599419D01*
X119829962Y-149606651D01*
X119849368Y-149615830D01*
X119867781Y-149626866D01*
X119885024Y-149639654D01*
X119900930Y-149654070D01*
X119915346Y-149669976D01*
X119928134Y-149687219D01*
X119939170Y-149705632D01*
X119948349Y-149725038D01*
X119955581Y-149745250D01*
X119960797Y-149766074D01*
X119963947Y-149787309D01*
X119965000Y-149808750D01*
X119965000Y-150246250D01*
X119963947Y-150267691D01*
X119960797Y-150288926D01*
X119955581Y-150309750D01*
X119948349Y-150329962D01*
X119939170Y-150349368D01*
X119928134Y-150367781D01*
X119915346Y-150385024D01*
X119900930Y-150400930D01*
X119885024Y-150415346D01*
X119867781Y-150428134D01*
X119849368Y-150439170D01*
X119829962Y-150448349D01*
X119809750Y-150455581D01*
X119788926Y-150460797D01*
X119767691Y-150463947D01*
X119746250Y-150465000D01*
X119233750Y-150465000D01*
X119212309Y-150463947D01*
X119191074Y-150460797D01*
X119170250Y-150455581D01*
X119150038Y-150448349D01*
X119130632Y-150439170D01*
X119112219Y-150428134D01*
X119094976Y-150415346D01*
X119079070Y-150400930D01*
X119064654Y-150385024D01*
X119051866Y-150367781D01*
X119040830Y-150349368D01*
X119031651Y-150329962D01*
X119024419Y-150309750D01*
X119019203Y-150288926D01*
X119016053Y-150267691D01*
X119015000Y-150246250D01*
X119015000Y-149808750D01*
X119016053Y-149787309D01*
X119019203Y-149766074D01*
X119024419Y-149745250D01*
X119031651Y-149725038D01*
X119040830Y-149705632D01*
X119051866Y-149687219D01*
X119064654Y-149669976D01*
X119079070Y-149654070D01*
X119094976Y-149639654D01*
X119112219Y-149626866D01*
X119130632Y-149615830D01*
X119150038Y-149606651D01*
X119170250Y-149599419D01*
X119191074Y-149594203D01*
X119212309Y-149591053D01*
X119233750Y-149590000D01*
X119746250Y-149590000D01*
X119767691Y-149591053D01*
G37*
G04 #@! TD.AperFunction*
G04 #@! TA.AperFunction,SMDPad,CuDef*
G36*
X131017691Y-148276053D02*
G01*
X131038926Y-148279203D01*
X131059750Y-148284419D01*
X131079962Y-148291651D01*
X131099368Y-148300830D01*
X131117781Y-148311866D01*
X131135024Y-148324654D01*
X131150930Y-148339070D01*
X131165346Y-148354976D01*
X131178134Y-148372219D01*
X131189170Y-148390632D01*
X131198349Y-148410038D01*
X131205581Y-148430250D01*
X131210797Y-148451074D01*
X131213947Y-148472309D01*
X131215000Y-148493750D01*
X131215000Y-148931250D01*
X131213947Y-148952691D01*
X131210797Y-148973926D01*
X131205581Y-148994750D01*
X131198349Y-149014962D01*
X131189170Y-149034368D01*
X131178134Y-149052781D01*
X131165346Y-149070024D01*
X131150930Y-149085930D01*
X131135024Y-149100346D01*
X131117781Y-149113134D01*
X131099368Y-149124170D01*
X131079962Y-149133349D01*
X131059750Y-149140581D01*
X131038926Y-149145797D01*
X131017691Y-149148947D01*
X130996250Y-149150000D01*
X130483750Y-149150000D01*
X130462309Y-149148947D01*
X130441074Y-149145797D01*
X130420250Y-149140581D01*
X130400038Y-149133349D01*
X130380632Y-149124170D01*
X130362219Y-149113134D01*
X130344976Y-149100346D01*
X130329070Y-149085930D01*
X130314654Y-149070024D01*
X130301866Y-149052781D01*
X130290830Y-149034368D01*
X130281651Y-149014962D01*
X130274419Y-148994750D01*
X130269203Y-148973926D01*
X130266053Y-148952691D01*
X130265000Y-148931250D01*
X130265000Y-148493750D01*
X130266053Y-148472309D01*
X130269203Y-148451074D01*
X130274419Y-148430250D01*
X130281651Y-148410038D01*
X130290830Y-148390632D01*
X130301866Y-148372219D01*
X130314654Y-148354976D01*
X130329070Y-148339070D01*
X130344976Y-148324654D01*
X130362219Y-148311866D01*
X130380632Y-148300830D01*
X130400038Y-148291651D01*
X130420250Y-148284419D01*
X130441074Y-148279203D01*
X130462309Y-148276053D01*
X130483750Y-148275000D01*
X130996250Y-148275000D01*
X131017691Y-148276053D01*
G37*
G04 #@! TD.AperFunction*
G04 #@! TA.AperFunction,SMDPad,CuDef*
G36*
X131017691Y-149851053D02*
G01*
X131038926Y-149854203D01*
X131059750Y-149859419D01*
X131079962Y-149866651D01*
X131099368Y-149875830D01*
X131117781Y-149886866D01*
X131135024Y-149899654D01*
X131150930Y-149914070D01*
X131165346Y-149929976D01*
X131178134Y-149947219D01*
X131189170Y-149965632D01*
X131198349Y-149985038D01*
X131205581Y-150005250D01*
X131210797Y-150026074D01*
X131213947Y-150047309D01*
X131215000Y-150068750D01*
X131215000Y-150506250D01*
X131213947Y-150527691D01*
X131210797Y-150548926D01*
X131205581Y-150569750D01*
X131198349Y-150589962D01*
X131189170Y-150609368D01*
X131178134Y-150627781D01*
X131165346Y-150645024D01*
X131150930Y-150660930D01*
X131135024Y-150675346D01*
X131117781Y-150688134D01*
X131099368Y-150699170D01*
X131079962Y-150708349D01*
X131059750Y-150715581D01*
X131038926Y-150720797D01*
X131017691Y-150723947D01*
X130996250Y-150725000D01*
X130483750Y-150725000D01*
X130462309Y-150723947D01*
X130441074Y-150720797D01*
X130420250Y-150715581D01*
X130400038Y-150708349D01*
X130380632Y-150699170D01*
X130362219Y-150688134D01*
X130344976Y-150675346D01*
X130329070Y-150660930D01*
X130314654Y-150645024D01*
X130301866Y-150627781D01*
X130290830Y-150609368D01*
X130281651Y-150589962D01*
X130274419Y-150569750D01*
X130269203Y-150548926D01*
X130266053Y-150527691D01*
X130265000Y-150506250D01*
X130265000Y-150068750D01*
X130266053Y-150047309D01*
X130269203Y-150026074D01*
X130274419Y-150005250D01*
X130281651Y-149985038D01*
X130290830Y-149965632D01*
X130301866Y-149947219D01*
X130314654Y-149929976D01*
X130329070Y-149914070D01*
X130344976Y-149899654D01*
X130362219Y-149886866D01*
X130380632Y-149875830D01*
X130400038Y-149866651D01*
X130420250Y-149859419D01*
X130441074Y-149854203D01*
X130462309Y-149851053D01*
X130483750Y-149850000D01*
X130996250Y-149850000D01*
X131017691Y-149851053D01*
G37*
G04 #@! TD.AperFunction*
D15*
X120450000Y-146700000D03*
X126620000Y-151830000D03*
X127350000Y-149340000D03*
X128420000Y-151690000D03*
X125645000Y-149440000D03*
D16*
X120590000Y-148452500D02*
X119490000Y-148452500D01*
X124385000Y-146780000D02*
X122262500Y-146780000D01*
X122262500Y-146780000D02*
X120590000Y-148452500D01*
X120880000Y-148742500D02*
X120880000Y-153770000D01*
X120590000Y-148452500D02*
X120880000Y-148742500D01*
X124770001Y-146254999D02*
X120905001Y-146254999D01*
X125035000Y-146780000D02*
X125035000Y-146519998D01*
X125035000Y-146519998D02*
X124770001Y-146254999D01*
X120905001Y-146254999D02*
X120875001Y-146254999D01*
X120905001Y-146254999D02*
X120895001Y-146254999D01*
X120895001Y-146254999D02*
X120450000Y-146700000D01*
X120450000Y-146700000D02*
X120450000Y-146700000D01*
X126620000Y-153110000D02*
X125960000Y-153770000D01*
X126620000Y-151830000D02*
X126620000Y-153110000D01*
X118702500Y-153407500D02*
X118340000Y-153770000D01*
X126060000Y-146780000D02*
X125685000Y-146780000D01*
X126795000Y-146780000D02*
X126060000Y-146780000D01*
X125055000Y-145700000D02*
X119510000Y-145700000D01*
X125685000Y-146780000D02*
X125685000Y-146330000D01*
X125685000Y-146330000D02*
X125055000Y-145700000D01*
X128727500Y-148712500D02*
X126795000Y-146780000D01*
X130740000Y-148712500D02*
X128727500Y-148712500D01*
X118340000Y-152670000D02*
X118340000Y-153770000D01*
X119490000Y-150027500D02*
X119015000Y-150027500D01*
X119510000Y-145700000D02*
X118360000Y-146850000D01*
X118360000Y-150840000D02*
X118340000Y-152670000D01*
X118397500Y-150027500D02*
X118360000Y-149990000D01*
X118360000Y-146850000D02*
X118360000Y-149990000D01*
X119490000Y-150027500D02*
X118397500Y-150027500D01*
X118360000Y-149990000D02*
X118360000Y-150840000D01*
X126060000Y-148380000D02*
X127020000Y-149340000D01*
X125685000Y-148380000D02*
X126060000Y-148380000D01*
X127020000Y-149340000D02*
X127350000Y-149340000D01*
X127350000Y-149340000D02*
X127350000Y-149340000D01*
X128420000Y-153690000D02*
X128500000Y-153770000D01*
X128420000Y-151690000D02*
X128420000Y-153690000D01*
X125035000Y-148830000D02*
X125645000Y-149440000D01*
X125035000Y-148380000D02*
X125035000Y-148830000D01*
X125645000Y-149440000D02*
X125645000Y-149440000D01*
X124385000Y-152805000D02*
X123420000Y-153770000D01*
X126442500Y-150747500D02*
X123420000Y-153770000D01*
X129805000Y-150747500D02*
X126442500Y-150747500D01*
X130265000Y-150287500D02*
X129805000Y-150747500D01*
X130740000Y-150287500D02*
X130265000Y-150287500D01*
X123420000Y-152567919D02*
X123420000Y-153770000D01*
X123420000Y-148970000D02*
X123420000Y-152567919D01*
X124010000Y-148380000D02*
X123420000Y-148970000D01*
X124385000Y-148380000D02*
X124010000Y-148380000D01*
D17*
G36*
X117849003Y-146286196D02*
G01*
X117819999Y-146309999D01*
X117786002Y-146351425D01*
X117725026Y-146425724D01*
X117696557Y-146478986D01*
X117654454Y-146557754D01*
X117610997Y-146701015D01*
X117600000Y-146812668D01*
X117600000Y-146812678D01*
X117596324Y-146850000D01*
X117600000Y-146887323D01*
X117600001Y-149952658D01*
X117600000Y-149952668D01*
X117600000Y-149952678D01*
X117596324Y-149990000D01*
X117600000Y-150027322D01*
X117600000Y-150835906D01*
X117584196Y-152281928D01*
X117490000Y-152281928D01*
X117365518Y-152294188D01*
X117245820Y-152330498D01*
X117135506Y-152389463D01*
X117038815Y-152468815D01*
X116959463Y-152565506D01*
X116900498Y-152675820D01*
X116864188Y-152795518D01*
X116851928Y-152920000D01*
X116851928Y-154620000D01*
X116864188Y-154744482D01*
X116900498Y-154864180D01*
X116959463Y-154974494D01*
X117038815Y-155071185D01*
X117135506Y-155150537D01*
X117245820Y-155209502D01*
X117365518Y-155245812D01*
X117490000Y-155258072D01*
X119190000Y-155258072D01*
X119314482Y-155245812D01*
X119434180Y-155209502D01*
X119544494Y-155150537D01*
X119641185Y-155071185D01*
X119720537Y-154974494D01*
X119779502Y-154864180D01*
X119801513Y-154791620D01*
X119933368Y-154923475D01*
X120176589Y-155085990D01*
X120446842Y-155197932D01*
X120733740Y-155255000D01*
X121026260Y-155255000D01*
X121313158Y-155197932D01*
X121583411Y-155085990D01*
X121826632Y-154923475D01*
X122033475Y-154716632D01*
X122150000Y-154542240D01*
X122266525Y-154716632D01*
X122473368Y-154923475D01*
X122716589Y-155085990D01*
X122986842Y-155197932D01*
X123273740Y-155255000D01*
X123566260Y-155255000D01*
X123853158Y-155197932D01*
X124123411Y-155085990D01*
X124366632Y-154923475D01*
X124573475Y-154716632D01*
X124690000Y-154542240D01*
X124806525Y-154716632D01*
X125013368Y-154923475D01*
X125256589Y-155085990D01*
X125526842Y-155197932D01*
X125813740Y-155255000D01*
X126106260Y-155255000D01*
X126393158Y-155197932D01*
X126663411Y-155085990D01*
X126906632Y-154923475D01*
X127113475Y-154716632D01*
X127230000Y-154542240D01*
X127346525Y-154716632D01*
X127553368Y-154923475D01*
X127796589Y-155085990D01*
X128066842Y-155197932D01*
X128353740Y-155255000D01*
X128646260Y-155255000D01*
X128933158Y-155197932D01*
X129203411Y-155085990D01*
X129446632Y-154923475D01*
X129653475Y-154716632D01*
X129775195Y-154534466D01*
X129844822Y-154651355D01*
X130039731Y-154867588D01*
X130273080Y-155041641D01*
X130535901Y-155166825D01*
X130683110Y-155211476D01*
X130913000Y-155090155D01*
X130913000Y-153897000D01*
X131167000Y-153897000D01*
X131167000Y-155090155D01*
X131396890Y-155211476D01*
X131544099Y-155166825D01*
X131806920Y-155041641D01*
X132040269Y-154867588D01*
X132235178Y-154651355D01*
X132384157Y-154401252D01*
X132481481Y-154126891D01*
X132360814Y-153897000D01*
X131167000Y-153897000D01*
X130913000Y-153897000D01*
X130893000Y-153897000D01*
X130893000Y-153643000D01*
X130913000Y-153643000D01*
X130913000Y-152449845D01*
X131167000Y-152449845D01*
X131167000Y-153643000D01*
X132360814Y-153643000D01*
X132481481Y-153413109D01*
X132384157Y-153138748D01*
X132235178Y-152888645D01*
X132040269Y-152672412D01*
X131806920Y-152498359D01*
X131544099Y-152373175D01*
X131396890Y-152328524D01*
X131167000Y-152449845D01*
X130913000Y-152449845D01*
X130683110Y-152328524D01*
X130535901Y-152373175D01*
X130273080Y-152498359D01*
X130039731Y-152672412D01*
X129844822Y-152888645D01*
X129775195Y-153005534D01*
X129653475Y-152823368D01*
X129446632Y-152616525D01*
X129203411Y-152454010D01*
X129180000Y-152444313D01*
X129180000Y-152393711D01*
X129223937Y-152349774D01*
X129337205Y-152180256D01*
X129415226Y-151991898D01*
X129455000Y-151791939D01*
X129455000Y-151588061D01*
X129438976Y-151507500D01*
X129767678Y-151507500D01*
X129805000Y-151511176D01*
X129842322Y-151507500D01*
X129842333Y-151507500D01*
X129953986Y-151496503D01*
X130097247Y-151453046D01*
X130229276Y-151382474D01*
X130284749Y-151336949D01*
X130316592Y-151346608D01*
X130483750Y-151363072D01*
X130996250Y-151363072D01*
X131163408Y-151346608D01*
X131324142Y-151297850D01*
X131472275Y-151218671D01*
X131602115Y-151112115D01*
X131708671Y-150982275D01*
X131787850Y-150834142D01*
X131836608Y-150673408D01*
X131853072Y-150506250D01*
X131853072Y-150068750D01*
X131836608Y-149901592D01*
X131787850Y-149740858D01*
X131708671Y-149592725D01*
X131632574Y-149500000D01*
X131708671Y-149407275D01*
X131787850Y-149259142D01*
X131836608Y-149098408D01*
X131853072Y-148931250D01*
X131853072Y-148493750D01*
X131836608Y-148326592D01*
X131787850Y-148165858D01*
X131708671Y-148017725D01*
X131602115Y-147887885D01*
X131472275Y-147781329D01*
X131324142Y-147702150D01*
X131163408Y-147653392D01*
X130996250Y-147636928D01*
X130483750Y-147636928D01*
X130316592Y-147653392D01*
X130155858Y-147702150D01*
X130007725Y-147781329D01*
X129877885Y-147887885D01*
X129824857Y-147952500D01*
X129042302Y-147952500D01*
X127358804Y-146269003D01*
X127335001Y-146239999D01*
X127219276Y-146145026D01*
X127087247Y-146074454D01*
X126943986Y-146030997D01*
X126832333Y-146020000D01*
X126832322Y-146020000D01*
X126795000Y-146016324D01*
X126757678Y-146020000D01*
X126381057Y-146020000D01*
X126343640Y-145950000D01*
X133330001Y-145950000D01*
X133330000Y-155340000D01*
X115650000Y-155340000D01*
X115650000Y-145950000D01*
X118185199Y-145950000D01*
X117849003Y-146286196D01*
G37*
X117849003Y-146286196D02*
X117819999Y-146309999D01*
X117786002Y-146351425D01*
X117725026Y-146425724D01*
X117696557Y-146478986D01*
X117654454Y-146557754D01*
X117610997Y-146701015D01*
X117600000Y-146812668D01*
X117600000Y-146812678D01*
X117596324Y-146850000D01*
X117600000Y-146887323D01*
X117600001Y-149952658D01*
X117600000Y-149952668D01*
X117600000Y-149952678D01*
X117596324Y-149990000D01*
X117600000Y-150027322D01*
X117600000Y-150835906D01*
X117584196Y-152281928D01*
X117490000Y-152281928D01*
X117365518Y-152294188D01*
X117245820Y-152330498D01*
X117135506Y-152389463D01*
X117038815Y-152468815D01*
X116959463Y-152565506D01*
X116900498Y-152675820D01*
X116864188Y-152795518D01*
X116851928Y-152920000D01*
X116851928Y-154620000D01*
X116864188Y-154744482D01*
X116900498Y-154864180D01*
X116959463Y-154974494D01*
X117038815Y-155071185D01*
X117135506Y-155150537D01*
X117245820Y-155209502D01*
X117365518Y-155245812D01*
X117490000Y-155258072D01*
X119190000Y-155258072D01*
X119314482Y-155245812D01*
X119434180Y-155209502D01*
X119544494Y-155150537D01*
X119641185Y-155071185D01*
X119720537Y-154974494D01*
X119779502Y-154864180D01*
X119801513Y-154791620D01*
X119933368Y-154923475D01*
X120176589Y-155085990D01*
X120446842Y-155197932D01*
X120733740Y-155255000D01*
X121026260Y-155255000D01*
X121313158Y-155197932D01*
X121583411Y-155085990D01*
X121826632Y-154923475D01*
X122033475Y-154716632D01*
X122150000Y-154542240D01*
X122266525Y-154716632D01*
X122473368Y-154923475D01*
X122716589Y-155085990D01*
X122986842Y-155197932D01*
X123273740Y-155255000D01*
X123566260Y-155255000D01*
X123853158Y-155197932D01*
X124123411Y-155085990D01*
X124366632Y-154923475D01*
X124573475Y-154716632D01*
X124690000Y-154542240D01*
X124806525Y-154716632D01*
X125013368Y-154923475D01*
X125256589Y-155085990D01*
X125526842Y-155197932D01*
X125813740Y-155255000D01*
X126106260Y-155255000D01*
X126393158Y-155197932D01*
X126663411Y-155085990D01*
X126906632Y-154923475D01*
X127113475Y-154716632D01*
X127230000Y-154542240D01*
X127346525Y-154716632D01*
X127553368Y-154923475D01*
X127796589Y-155085990D01*
X128066842Y-155197932D01*
X128353740Y-155255000D01*
X128646260Y-155255000D01*
X128933158Y-155197932D01*
X129203411Y-155085990D01*
X129446632Y-154923475D01*
X129653475Y-154716632D01*
X129775195Y-154534466D01*
X129844822Y-154651355D01*
X130039731Y-154867588D01*
X130273080Y-155041641D01*
X130535901Y-155166825D01*
X130683110Y-155211476D01*
X130913000Y-155090155D01*
X130913000Y-153897000D01*
X131167000Y-153897000D01*
X131167000Y-155090155D01*
X131396890Y-155211476D01*
X131544099Y-155166825D01*
X131806920Y-155041641D01*
X132040269Y-154867588D01*
X132235178Y-154651355D01*
X132384157Y-154401252D01*
X132481481Y-154126891D01*
X132360814Y-153897000D01*
X131167000Y-153897000D01*
X130913000Y-153897000D01*
X130893000Y-153897000D01*
X130893000Y-153643000D01*
X130913000Y-153643000D01*
X130913000Y-152449845D01*
X131167000Y-152449845D01*
X131167000Y-153643000D01*
X132360814Y-153643000D01*
X132481481Y-153413109D01*
X132384157Y-153138748D01*
X132235178Y-152888645D01*
X132040269Y-152672412D01*
X131806920Y-152498359D01*
X131544099Y-152373175D01*
X131396890Y-152328524D01*
X131167000Y-152449845D01*
X130913000Y-152449845D01*
X130683110Y-152328524D01*
X130535901Y-152373175D01*
X130273080Y-152498359D01*
X130039731Y-152672412D01*
X129844822Y-152888645D01*
X129775195Y-153005534D01*
X129653475Y-152823368D01*
X129446632Y-152616525D01*
X129203411Y-152454010D01*
X129180000Y-152444313D01*
X129180000Y-152393711D01*
X129223937Y-152349774D01*
X129337205Y-152180256D01*
X129415226Y-151991898D01*
X129455000Y-151791939D01*
X129455000Y-151588061D01*
X129438976Y-151507500D01*
X129767678Y-151507500D01*
X129805000Y-151511176D01*
X129842322Y-151507500D01*
X129842333Y-151507500D01*
X129953986Y-151496503D01*
X130097247Y-151453046D01*
X130229276Y-151382474D01*
X130284749Y-151336949D01*
X130316592Y-151346608D01*
X130483750Y-151363072D01*
X130996250Y-151363072D01*
X131163408Y-151346608D01*
X131324142Y-151297850D01*
X131472275Y-151218671D01*
X131602115Y-151112115D01*
X131708671Y-150982275D01*
X131787850Y-150834142D01*
X131836608Y-150673408D01*
X131853072Y-150506250D01*
X131853072Y-150068750D01*
X131836608Y-149901592D01*
X131787850Y-149740858D01*
X131708671Y-149592725D01*
X131632574Y-149500000D01*
X131708671Y-149407275D01*
X131787850Y-149259142D01*
X131836608Y-149098408D01*
X131853072Y-148931250D01*
X131853072Y-148493750D01*
X131836608Y-148326592D01*
X131787850Y-148165858D01*
X131708671Y-148017725D01*
X131602115Y-147887885D01*
X131472275Y-147781329D01*
X131324142Y-147702150D01*
X131163408Y-147653392D01*
X130996250Y-147636928D01*
X130483750Y-147636928D01*
X130316592Y-147653392D01*
X130155858Y-147702150D01*
X130007725Y-147781329D01*
X129877885Y-147887885D01*
X129824857Y-147952500D01*
X129042302Y-147952500D01*
X127358804Y-146269003D01*
X127335001Y-146239999D01*
X127219276Y-146145026D01*
X127087247Y-146074454D01*
X126943986Y-146030997D01*
X126832333Y-146020000D01*
X126832322Y-146020000D01*
X126795000Y-146016324D01*
X126757678Y-146020000D01*
X126381057Y-146020000D01*
X126343640Y-145950000D01*
X133330001Y-145950000D01*
X133330000Y-155340000D01*
X115650000Y-155340000D01*
X115650000Y-145950000D01*
X118185199Y-145950000D01*
X117849003Y-146286196D01*
G36*
X125193750Y-149215000D02*
G01*
X125304812Y-149201422D01*
X125359677Y-149182806D01*
X125435518Y-149205812D01*
X125560000Y-149218072D01*
X125810000Y-149218072D01*
X125822081Y-149216882D01*
X126430915Y-149825717D01*
X126432795Y-149830256D01*
X126537862Y-149987500D01*
X126479822Y-149987500D01*
X126442499Y-149983824D01*
X126405176Y-149987500D01*
X126405167Y-149987500D01*
X126293514Y-149998497D01*
X126150253Y-150041954D01*
X126018224Y-150112526D01*
X126018222Y-150112527D01*
X126018223Y-150112527D01*
X125931496Y-150183701D01*
X125931492Y-150183705D01*
X125902499Y-150207499D01*
X125878705Y-150236492D01*
X124180000Y-151935198D01*
X124180000Y-149284801D01*
X124247919Y-149216882D01*
X124260000Y-149218072D01*
X124510000Y-149218072D01*
X124634482Y-149205812D01*
X124710323Y-149182806D01*
X124765188Y-149201422D01*
X124876250Y-149215000D01*
X125035000Y-149056250D01*
X125193750Y-149215000D01*
G37*
X125193750Y-149215000D02*
X125304812Y-149201422D01*
X125359677Y-149182806D01*
X125435518Y-149205812D01*
X125560000Y-149218072D01*
X125810000Y-149218072D01*
X125822081Y-149216882D01*
X126430915Y-149825717D01*
X126432795Y-149830256D01*
X126537862Y-149987500D01*
X126479822Y-149987500D01*
X126442499Y-149983824D01*
X126405176Y-149987500D01*
X126405167Y-149987500D01*
X126293514Y-149998497D01*
X126150253Y-150041954D01*
X126018224Y-150112526D01*
X126018222Y-150112527D01*
X126018223Y-150112527D01*
X125931496Y-150183701D01*
X125931492Y-150183705D01*
X125902499Y-150207499D01*
X125878705Y-150236492D01*
X124180000Y-151935198D01*
X124180000Y-149284801D01*
X124247919Y-149216882D01*
X124260000Y-149218072D01*
X124510000Y-149218072D01*
X124634482Y-149205812D01*
X124710323Y-149182806D01*
X124765188Y-149201422D01*
X124876250Y-149215000D01*
X125035000Y-149056250D01*
X125193750Y-149215000D01*
M02*
