G04 #@! TF.GenerationSoftware,KiCad,Pcbnew,(5.1.5)-3*
G04 #@! TF.CreationDate,2020-05-16T18:01:42+03:00*
G04 #@! TF.ProjectId,STTS22H_Breakout_Board,53545453-3232-4485-9f42-7265616b6f75,rev?*
G04 #@! TF.SameCoordinates,Original*
G04 #@! TF.FileFunction,Soldermask,Bot*
G04 #@! TF.FilePolarity,Negative*
%FSLAX46Y46*%
G04 Gerber Fmt 4.6, Leading zero omitted, Abs format (unit mm)*
G04 Created by KiCad (PCBNEW (5.1.5)-3) date 2020-05-16 18:01:42*
%MOMM*%
%LPD*%
G04 APERTURE LIST*
%ADD10C,0.100000*%
G04 APERTURE END LIST*
D10*
G36*
X131153512Y-152873927D02*
G01*
X131302812Y-152903624D01*
X131466784Y-152971544D01*
X131614354Y-153070147D01*
X131739853Y-153195646D01*
X131838456Y-153343216D01*
X131906376Y-153507188D01*
X131941000Y-153681259D01*
X131941000Y-153858741D01*
X131906376Y-154032812D01*
X131838456Y-154196784D01*
X131739853Y-154344354D01*
X131614354Y-154469853D01*
X131466784Y-154568456D01*
X131302812Y-154636376D01*
X131153512Y-154666073D01*
X131128742Y-154671000D01*
X130951258Y-154671000D01*
X130926488Y-154666073D01*
X130777188Y-154636376D01*
X130613216Y-154568456D01*
X130465646Y-154469853D01*
X130340147Y-154344354D01*
X130241544Y-154196784D01*
X130173624Y-154032812D01*
X130139000Y-153858741D01*
X130139000Y-153681259D01*
X130173624Y-153507188D01*
X130241544Y-153343216D01*
X130340147Y-153195646D01*
X130465646Y-153070147D01*
X130613216Y-152971544D01*
X130777188Y-152903624D01*
X130926488Y-152873927D01*
X130951258Y-152869000D01*
X131128742Y-152869000D01*
X131153512Y-152873927D01*
G37*
G36*
X128613512Y-152873927D02*
G01*
X128762812Y-152903624D01*
X128926784Y-152971544D01*
X129074354Y-153070147D01*
X129199853Y-153195646D01*
X129298456Y-153343216D01*
X129366376Y-153507188D01*
X129401000Y-153681259D01*
X129401000Y-153858741D01*
X129366376Y-154032812D01*
X129298456Y-154196784D01*
X129199853Y-154344354D01*
X129074354Y-154469853D01*
X128926784Y-154568456D01*
X128762812Y-154636376D01*
X128613512Y-154666073D01*
X128588742Y-154671000D01*
X128411258Y-154671000D01*
X128386488Y-154666073D01*
X128237188Y-154636376D01*
X128073216Y-154568456D01*
X127925646Y-154469853D01*
X127800147Y-154344354D01*
X127701544Y-154196784D01*
X127633624Y-154032812D01*
X127599000Y-153858741D01*
X127599000Y-153681259D01*
X127633624Y-153507188D01*
X127701544Y-153343216D01*
X127800147Y-153195646D01*
X127925646Y-153070147D01*
X128073216Y-152971544D01*
X128237188Y-152903624D01*
X128386488Y-152873927D01*
X128411258Y-152869000D01*
X128588742Y-152869000D01*
X128613512Y-152873927D01*
G37*
G36*
X126073512Y-152873927D02*
G01*
X126222812Y-152903624D01*
X126386784Y-152971544D01*
X126534354Y-153070147D01*
X126659853Y-153195646D01*
X126758456Y-153343216D01*
X126826376Y-153507188D01*
X126861000Y-153681259D01*
X126861000Y-153858741D01*
X126826376Y-154032812D01*
X126758456Y-154196784D01*
X126659853Y-154344354D01*
X126534354Y-154469853D01*
X126386784Y-154568456D01*
X126222812Y-154636376D01*
X126073512Y-154666073D01*
X126048742Y-154671000D01*
X125871258Y-154671000D01*
X125846488Y-154666073D01*
X125697188Y-154636376D01*
X125533216Y-154568456D01*
X125385646Y-154469853D01*
X125260147Y-154344354D01*
X125161544Y-154196784D01*
X125093624Y-154032812D01*
X125059000Y-153858741D01*
X125059000Y-153681259D01*
X125093624Y-153507188D01*
X125161544Y-153343216D01*
X125260147Y-153195646D01*
X125385646Y-153070147D01*
X125533216Y-152971544D01*
X125697188Y-152903624D01*
X125846488Y-152873927D01*
X125871258Y-152869000D01*
X126048742Y-152869000D01*
X126073512Y-152873927D01*
G37*
G36*
X123533512Y-152873927D02*
G01*
X123682812Y-152903624D01*
X123846784Y-152971544D01*
X123994354Y-153070147D01*
X124119853Y-153195646D01*
X124218456Y-153343216D01*
X124286376Y-153507188D01*
X124321000Y-153681259D01*
X124321000Y-153858741D01*
X124286376Y-154032812D01*
X124218456Y-154196784D01*
X124119853Y-154344354D01*
X123994354Y-154469853D01*
X123846784Y-154568456D01*
X123682812Y-154636376D01*
X123533512Y-154666073D01*
X123508742Y-154671000D01*
X123331258Y-154671000D01*
X123306488Y-154666073D01*
X123157188Y-154636376D01*
X122993216Y-154568456D01*
X122845646Y-154469853D01*
X122720147Y-154344354D01*
X122621544Y-154196784D01*
X122553624Y-154032812D01*
X122519000Y-153858741D01*
X122519000Y-153681259D01*
X122553624Y-153507188D01*
X122621544Y-153343216D01*
X122720147Y-153195646D01*
X122845646Y-153070147D01*
X122993216Y-152971544D01*
X123157188Y-152903624D01*
X123306488Y-152873927D01*
X123331258Y-152869000D01*
X123508742Y-152869000D01*
X123533512Y-152873927D01*
G37*
G36*
X120993512Y-152873927D02*
G01*
X121142812Y-152903624D01*
X121306784Y-152971544D01*
X121454354Y-153070147D01*
X121579853Y-153195646D01*
X121678456Y-153343216D01*
X121746376Y-153507188D01*
X121781000Y-153681259D01*
X121781000Y-153858741D01*
X121746376Y-154032812D01*
X121678456Y-154196784D01*
X121579853Y-154344354D01*
X121454354Y-154469853D01*
X121306784Y-154568456D01*
X121142812Y-154636376D01*
X120993512Y-154666073D01*
X120968742Y-154671000D01*
X120791258Y-154671000D01*
X120766488Y-154666073D01*
X120617188Y-154636376D01*
X120453216Y-154568456D01*
X120305646Y-154469853D01*
X120180147Y-154344354D01*
X120081544Y-154196784D01*
X120013624Y-154032812D01*
X119979000Y-153858741D01*
X119979000Y-153681259D01*
X120013624Y-153507188D01*
X120081544Y-153343216D01*
X120180147Y-153195646D01*
X120305646Y-153070147D01*
X120453216Y-152971544D01*
X120617188Y-152903624D01*
X120766488Y-152873927D01*
X120791258Y-152869000D01*
X120968742Y-152869000D01*
X120993512Y-152873927D01*
G37*
G36*
X119241000Y-154671000D02*
G01*
X117439000Y-154671000D01*
X117439000Y-152869000D01*
X119241000Y-152869000D01*
X119241000Y-154671000D01*
G37*
M02*
