G04 #@! TF.GenerationSoftware,KiCad,Pcbnew,(5.1.5)-3*
G04 #@! TF.CreationDate,2020-05-16T18:01:42+03:00*
G04 #@! TF.ProjectId,STTS22H_Breakout_Board,53545453-3232-4485-9f42-7265616b6f75,rev?*
G04 #@! TF.SameCoordinates,Original*
G04 #@! TF.FileFunction,Copper,L2,Bot*
G04 #@! TF.FilePolarity,Positive*
%FSLAX46Y46*%
G04 Gerber Fmt 4.6, Leading zero omitted, Abs format (unit mm)*
G04 Created by KiCad (PCBNEW (5.1.5)-3) date 2020-05-16 18:01:42*
%MOMM*%
%LPD*%
G04 APERTURE LIST*
%ADD10R,1.700000X1.700000*%
%ADD11O,1.700000X1.700000*%
%ADD12C,0.800000*%
%ADD13C,0.250000*%
%ADD14C,0.254000*%
G04 APERTURE END LIST*
D10*
X118340000Y-153770000D03*
D11*
X120880000Y-153770000D03*
X123420000Y-153770000D03*
X125960000Y-153770000D03*
X128500000Y-153770000D03*
X131040000Y-153770000D03*
D12*
X120450000Y-146700000D03*
X126620000Y-151830000D03*
X127350000Y-149340000D03*
X128420000Y-151690000D03*
X125645000Y-149440000D03*
D13*
X120849999Y-147099999D02*
X121869999Y-147099999D01*
X120450000Y-146700000D02*
X120849999Y-147099999D01*
X121869999Y-147099999D02*
X126440000Y-151670000D01*
X126440000Y-151670000D02*
X126460000Y-151670000D01*
X126460000Y-151670000D02*
X126620000Y-151830000D01*
X126620000Y-151830000D02*
X126620000Y-151830000D01*
X127350000Y-149905685D02*
X128420000Y-150975685D01*
X127350000Y-149340000D02*
X127350000Y-149905685D01*
X128420000Y-150975685D02*
X128420000Y-151690000D01*
X128420000Y-151690000D02*
X128420000Y-151690000D01*
D14*
G36*
X119646063Y-146040226D02*
G01*
X119532795Y-146209744D01*
X119454774Y-146398102D01*
X119415000Y-146598061D01*
X119415000Y-146801939D01*
X119454774Y-147001898D01*
X119532795Y-147190256D01*
X119646063Y-147359774D01*
X119790226Y-147503937D01*
X119959744Y-147617205D01*
X120148102Y-147695226D01*
X120348061Y-147735000D01*
X120425774Y-147735000D01*
X120557752Y-147805545D01*
X120701013Y-147849002D01*
X120812666Y-147859999D01*
X120812676Y-147859999D01*
X120849998Y-147863675D01*
X120887321Y-147859999D01*
X121555198Y-147859999D01*
X125585000Y-151889803D01*
X125585000Y-151931939D01*
X125624774Y-152131898D01*
X125697748Y-152308072D01*
X125526842Y-152342068D01*
X125256589Y-152454010D01*
X125013368Y-152616525D01*
X124806525Y-152823368D01*
X124690000Y-152997760D01*
X124573475Y-152823368D01*
X124366632Y-152616525D01*
X124123411Y-152454010D01*
X123853158Y-152342068D01*
X123566260Y-152285000D01*
X123273740Y-152285000D01*
X122986842Y-152342068D01*
X122716589Y-152454010D01*
X122473368Y-152616525D01*
X122266525Y-152823368D01*
X122150000Y-152997760D01*
X122033475Y-152823368D01*
X121826632Y-152616525D01*
X121583411Y-152454010D01*
X121313158Y-152342068D01*
X121026260Y-152285000D01*
X120733740Y-152285000D01*
X120446842Y-152342068D01*
X120176589Y-152454010D01*
X119933368Y-152616525D01*
X119801513Y-152748380D01*
X119779502Y-152675820D01*
X119720537Y-152565506D01*
X119641185Y-152468815D01*
X119544494Y-152389463D01*
X119434180Y-152330498D01*
X119314482Y-152294188D01*
X119190000Y-152281928D01*
X117490000Y-152281928D01*
X117365518Y-152294188D01*
X117245820Y-152330498D01*
X117135506Y-152389463D01*
X117038815Y-152468815D01*
X116959463Y-152565506D01*
X116900498Y-152675820D01*
X116864188Y-152795518D01*
X116851928Y-152920000D01*
X116851928Y-154620000D01*
X116864188Y-154744482D01*
X116900498Y-154864180D01*
X116959463Y-154974494D01*
X117038815Y-155071185D01*
X117135506Y-155150537D01*
X117245820Y-155209502D01*
X117365518Y-155245812D01*
X117490000Y-155258072D01*
X119190000Y-155258072D01*
X119314482Y-155245812D01*
X119434180Y-155209502D01*
X119544494Y-155150537D01*
X119641185Y-155071185D01*
X119720537Y-154974494D01*
X119779502Y-154864180D01*
X119801513Y-154791620D01*
X119933368Y-154923475D01*
X120176589Y-155085990D01*
X120446842Y-155197932D01*
X120733740Y-155255000D01*
X121026260Y-155255000D01*
X121313158Y-155197932D01*
X121583411Y-155085990D01*
X121826632Y-154923475D01*
X122033475Y-154716632D01*
X122150000Y-154542240D01*
X122266525Y-154716632D01*
X122473368Y-154923475D01*
X122716589Y-155085990D01*
X122986842Y-155197932D01*
X123273740Y-155255000D01*
X123566260Y-155255000D01*
X123853158Y-155197932D01*
X124123411Y-155085990D01*
X124366632Y-154923475D01*
X124573475Y-154716632D01*
X124690000Y-154542240D01*
X124806525Y-154716632D01*
X125013368Y-154923475D01*
X125256589Y-155085990D01*
X125526842Y-155197932D01*
X125813740Y-155255000D01*
X126106260Y-155255000D01*
X126393158Y-155197932D01*
X126663411Y-155085990D01*
X126906632Y-154923475D01*
X127113475Y-154716632D01*
X127230000Y-154542240D01*
X127346525Y-154716632D01*
X127553368Y-154923475D01*
X127796589Y-155085990D01*
X128066842Y-155197932D01*
X128353740Y-155255000D01*
X128646260Y-155255000D01*
X128933158Y-155197932D01*
X129203411Y-155085990D01*
X129446632Y-154923475D01*
X129653475Y-154716632D01*
X129775195Y-154534466D01*
X129844822Y-154651355D01*
X130039731Y-154867588D01*
X130273080Y-155041641D01*
X130535901Y-155166825D01*
X130683110Y-155211476D01*
X130913000Y-155090155D01*
X130913000Y-153897000D01*
X131167000Y-153897000D01*
X131167000Y-155090155D01*
X131396890Y-155211476D01*
X131544099Y-155166825D01*
X131806920Y-155041641D01*
X132040269Y-154867588D01*
X132235178Y-154651355D01*
X132384157Y-154401252D01*
X132481481Y-154126891D01*
X132360814Y-153897000D01*
X131167000Y-153897000D01*
X130913000Y-153897000D01*
X130893000Y-153897000D01*
X130893000Y-153643000D01*
X130913000Y-153643000D01*
X130913000Y-152449845D01*
X131167000Y-152449845D01*
X131167000Y-153643000D01*
X132360814Y-153643000D01*
X132481481Y-153413109D01*
X132384157Y-153138748D01*
X132235178Y-152888645D01*
X132040269Y-152672412D01*
X131806920Y-152498359D01*
X131544099Y-152373175D01*
X131396890Y-152328524D01*
X131167000Y-152449845D01*
X130913000Y-152449845D01*
X130683110Y-152328524D01*
X130535901Y-152373175D01*
X130273080Y-152498359D01*
X130039731Y-152672412D01*
X129844822Y-152888645D01*
X129775195Y-153005534D01*
X129653475Y-152823368D01*
X129446632Y-152616525D01*
X129203411Y-152454010D01*
X129144219Y-152429492D01*
X129223937Y-152349774D01*
X129337205Y-152180256D01*
X129415226Y-151991898D01*
X129455000Y-151791939D01*
X129455000Y-151588061D01*
X129415226Y-151388102D01*
X129337205Y-151199744D01*
X129223937Y-151030226D01*
X129182397Y-150988686D01*
X129183677Y-150975685D01*
X129169003Y-150826699D01*
X129125546Y-150683438D01*
X129054974Y-150551409D01*
X128983799Y-150464682D01*
X128960001Y-150435684D01*
X128931004Y-150411887D01*
X128291271Y-149772155D01*
X128345226Y-149641898D01*
X128385000Y-149441939D01*
X128385000Y-149238061D01*
X128345226Y-149038102D01*
X128267205Y-148849744D01*
X128153937Y-148680226D01*
X128009774Y-148536063D01*
X127840256Y-148422795D01*
X127651898Y-148344774D01*
X127451939Y-148305000D01*
X127248061Y-148305000D01*
X127048102Y-148344774D01*
X126859744Y-148422795D01*
X126690226Y-148536063D01*
X126546063Y-148680226D01*
X126432795Y-148849744D01*
X126354774Y-149038102D01*
X126315000Y-149238061D01*
X126315000Y-149441939D01*
X126354774Y-149641898D01*
X126432795Y-149830256D01*
X126546063Y-149999774D01*
X126601013Y-150054724D01*
X126644454Y-150197932D01*
X126651978Y-150212008D01*
X126715026Y-150329961D01*
X126771234Y-150398450D01*
X126810000Y-150445686D01*
X126838998Y-150469484D01*
X127529416Y-151159903D01*
X127502795Y-151199744D01*
X127480165Y-151254377D01*
X127423937Y-151170226D01*
X127279774Y-151026063D01*
X127110256Y-150912795D01*
X126921898Y-150834774D01*
X126721939Y-150795000D01*
X126639803Y-150795000D01*
X122433803Y-146589002D01*
X122410000Y-146559998D01*
X122294275Y-146465025D01*
X122162246Y-146394453D01*
X122018985Y-146350996D01*
X121907332Y-146339999D01*
X121907321Y-146339999D01*
X121869999Y-146336323D01*
X121832677Y-146339999D01*
X121421159Y-146339999D01*
X121367205Y-146209744D01*
X121253937Y-146040226D01*
X121163711Y-145950000D01*
X133330001Y-145950000D01*
X133330000Y-155340000D01*
X115650000Y-155340000D01*
X115650000Y-145950000D01*
X119736289Y-145950000D01*
X119646063Y-146040226D01*
G37*
X119646063Y-146040226D02*
X119532795Y-146209744D01*
X119454774Y-146398102D01*
X119415000Y-146598061D01*
X119415000Y-146801939D01*
X119454774Y-147001898D01*
X119532795Y-147190256D01*
X119646063Y-147359774D01*
X119790226Y-147503937D01*
X119959744Y-147617205D01*
X120148102Y-147695226D01*
X120348061Y-147735000D01*
X120425774Y-147735000D01*
X120557752Y-147805545D01*
X120701013Y-147849002D01*
X120812666Y-147859999D01*
X120812676Y-147859999D01*
X120849998Y-147863675D01*
X120887321Y-147859999D01*
X121555198Y-147859999D01*
X125585000Y-151889803D01*
X125585000Y-151931939D01*
X125624774Y-152131898D01*
X125697748Y-152308072D01*
X125526842Y-152342068D01*
X125256589Y-152454010D01*
X125013368Y-152616525D01*
X124806525Y-152823368D01*
X124690000Y-152997760D01*
X124573475Y-152823368D01*
X124366632Y-152616525D01*
X124123411Y-152454010D01*
X123853158Y-152342068D01*
X123566260Y-152285000D01*
X123273740Y-152285000D01*
X122986842Y-152342068D01*
X122716589Y-152454010D01*
X122473368Y-152616525D01*
X122266525Y-152823368D01*
X122150000Y-152997760D01*
X122033475Y-152823368D01*
X121826632Y-152616525D01*
X121583411Y-152454010D01*
X121313158Y-152342068D01*
X121026260Y-152285000D01*
X120733740Y-152285000D01*
X120446842Y-152342068D01*
X120176589Y-152454010D01*
X119933368Y-152616525D01*
X119801513Y-152748380D01*
X119779502Y-152675820D01*
X119720537Y-152565506D01*
X119641185Y-152468815D01*
X119544494Y-152389463D01*
X119434180Y-152330498D01*
X119314482Y-152294188D01*
X119190000Y-152281928D01*
X117490000Y-152281928D01*
X117365518Y-152294188D01*
X117245820Y-152330498D01*
X117135506Y-152389463D01*
X117038815Y-152468815D01*
X116959463Y-152565506D01*
X116900498Y-152675820D01*
X116864188Y-152795518D01*
X116851928Y-152920000D01*
X116851928Y-154620000D01*
X116864188Y-154744482D01*
X116900498Y-154864180D01*
X116959463Y-154974494D01*
X117038815Y-155071185D01*
X117135506Y-155150537D01*
X117245820Y-155209502D01*
X117365518Y-155245812D01*
X117490000Y-155258072D01*
X119190000Y-155258072D01*
X119314482Y-155245812D01*
X119434180Y-155209502D01*
X119544494Y-155150537D01*
X119641185Y-155071185D01*
X119720537Y-154974494D01*
X119779502Y-154864180D01*
X119801513Y-154791620D01*
X119933368Y-154923475D01*
X120176589Y-155085990D01*
X120446842Y-155197932D01*
X120733740Y-155255000D01*
X121026260Y-155255000D01*
X121313158Y-155197932D01*
X121583411Y-155085990D01*
X121826632Y-154923475D01*
X122033475Y-154716632D01*
X122150000Y-154542240D01*
X122266525Y-154716632D01*
X122473368Y-154923475D01*
X122716589Y-155085990D01*
X122986842Y-155197932D01*
X123273740Y-155255000D01*
X123566260Y-155255000D01*
X123853158Y-155197932D01*
X124123411Y-155085990D01*
X124366632Y-154923475D01*
X124573475Y-154716632D01*
X124690000Y-154542240D01*
X124806525Y-154716632D01*
X125013368Y-154923475D01*
X125256589Y-155085990D01*
X125526842Y-155197932D01*
X125813740Y-155255000D01*
X126106260Y-155255000D01*
X126393158Y-155197932D01*
X126663411Y-155085990D01*
X126906632Y-154923475D01*
X127113475Y-154716632D01*
X127230000Y-154542240D01*
X127346525Y-154716632D01*
X127553368Y-154923475D01*
X127796589Y-155085990D01*
X128066842Y-155197932D01*
X128353740Y-155255000D01*
X128646260Y-155255000D01*
X128933158Y-155197932D01*
X129203411Y-155085990D01*
X129446632Y-154923475D01*
X129653475Y-154716632D01*
X129775195Y-154534466D01*
X129844822Y-154651355D01*
X130039731Y-154867588D01*
X130273080Y-155041641D01*
X130535901Y-155166825D01*
X130683110Y-155211476D01*
X130913000Y-155090155D01*
X130913000Y-153897000D01*
X131167000Y-153897000D01*
X131167000Y-155090155D01*
X131396890Y-155211476D01*
X131544099Y-155166825D01*
X131806920Y-155041641D01*
X132040269Y-154867588D01*
X132235178Y-154651355D01*
X132384157Y-154401252D01*
X132481481Y-154126891D01*
X132360814Y-153897000D01*
X131167000Y-153897000D01*
X130913000Y-153897000D01*
X130893000Y-153897000D01*
X130893000Y-153643000D01*
X130913000Y-153643000D01*
X130913000Y-152449845D01*
X131167000Y-152449845D01*
X131167000Y-153643000D01*
X132360814Y-153643000D01*
X132481481Y-153413109D01*
X132384157Y-153138748D01*
X132235178Y-152888645D01*
X132040269Y-152672412D01*
X131806920Y-152498359D01*
X131544099Y-152373175D01*
X131396890Y-152328524D01*
X131167000Y-152449845D01*
X130913000Y-152449845D01*
X130683110Y-152328524D01*
X130535901Y-152373175D01*
X130273080Y-152498359D01*
X130039731Y-152672412D01*
X129844822Y-152888645D01*
X129775195Y-153005534D01*
X129653475Y-152823368D01*
X129446632Y-152616525D01*
X129203411Y-152454010D01*
X129144219Y-152429492D01*
X129223937Y-152349774D01*
X129337205Y-152180256D01*
X129415226Y-151991898D01*
X129455000Y-151791939D01*
X129455000Y-151588061D01*
X129415226Y-151388102D01*
X129337205Y-151199744D01*
X129223937Y-151030226D01*
X129182397Y-150988686D01*
X129183677Y-150975685D01*
X129169003Y-150826699D01*
X129125546Y-150683438D01*
X129054974Y-150551409D01*
X128983799Y-150464682D01*
X128960001Y-150435684D01*
X128931004Y-150411887D01*
X128291271Y-149772155D01*
X128345226Y-149641898D01*
X128385000Y-149441939D01*
X128385000Y-149238061D01*
X128345226Y-149038102D01*
X128267205Y-148849744D01*
X128153937Y-148680226D01*
X128009774Y-148536063D01*
X127840256Y-148422795D01*
X127651898Y-148344774D01*
X127451939Y-148305000D01*
X127248061Y-148305000D01*
X127048102Y-148344774D01*
X126859744Y-148422795D01*
X126690226Y-148536063D01*
X126546063Y-148680226D01*
X126432795Y-148849744D01*
X126354774Y-149038102D01*
X126315000Y-149238061D01*
X126315000Y-149441939D01*
X126354774Y-149641898D01*
X126432795Y-149830256D01*
X126546063Y-149999774D01*
X126601013Y-150054724D01*
X126644454Y-150197932D01*
X126651978Y-150212008D01*
X126715026Y-150329961D01*
X126771234Y-150398450D01*
X126810000Y-150445686D01*
X126838998Y-150469484D01*
X127529416Y-151159903D01*
X127502795Y-151199744D01*
X127480165Y-151254377D01*
X127423937Y-151170226D01*
X127279774Y-151026063D01*
X127110256Y-150912795D01*
X126921898Y-150834774D01*
X126721939Y-150795000D01*
X126639803Y-150795000D01*
X122433803Y-146589002D01*
X122410000Y-146559998D01*
X122294275Y-146465025D01*
X122162246Y-146394453D01*
X122018985Y-146350996D01*
X121907332Y-146339999D01*
X121907321Y-146339999D01*
X121869999Y-146336323D01*
X121832677Y-146339999D01*
X121421159Y-146339999D01*
X121367205Y-146209744D01*
X121253937Y-146040226D01*
X121163711Y-145950000D01*
X133330001Y-145950000D01*
X133330000Y-155340000D01*
X115650000Y-155340000D01*
X115650000Y-145950000D01*
X119736289Y-145950000D01*
X119646063Y-146040226D01*
M02*
