G04 #@! TF.GenerationSoftware,KiCad,Pcbnew,(5.1.5)-3*
G04 #@! TF.CreationDate,2020-05-16T18:01:42+03:00*
G04 #@! TF.ProjectId,STTS22H_Breakout_Board,53545453-3232-4485-9f42-7265616b6f75,rev?*
G04 #@! TF.SameCoordinates,Original*
G04 #@! TF.FileFunction,Soldermask,Top*
G04 #@! TF.FilePolarity,Negative*
%FSLAX46Y46*%
G04 Gerber Fmt 4.6, Leading zero omitted, Abs format (unit mm)*
G04 Created by KiCad (PCBNEW (5.1.5)-3) date 2020-05-16 18:01:42*
%MOMM*%
%LPD*%
G04 APERTURE LIST*
%ADD10C,0.100000*%
G04 APERTURE END LIST*
D10*
G36*
X128613512Y-152873927D02*
G01*
X128762812Y-152903624D01*
X128926784Y-152971544D01*
X129074354Y-153070147D01*
X129199853Y-153195646D01*
X129298456Y-153343216D01*
X129366376Y-153507188D01*
X129401000Y-153681259D01*
X129401000Y-153858741D01*
X129366376Y-154032812D01*
X129298456Y-154196784D01*
X129199853Y-154344354D01*
X129074354Y-154469853D01*
X128926784Y-154568456D01*
X128762812Y-154636376D01*
X128613512Y-154666073D01*
X128588742Y-154671000D01*
X128411258Y-154671000D01*
X128386488Y-154666073D01*
X128237188Y-154636376D01*
X128073216Y-154568456D01*
X127925646Y-154469853D01*
X127800147Y-154344354D01*
X127701544Y-154196784D01*
X127633624Y-154032812D01*
X127599000Y-153858741D01*
X127599000Y-153681259D01*
X127633624Y-153507188D01*
X127701544Y-153343216D01*
X127800147Y-153195646D01*
X127925646Y-153070147D01*
X128073216Y-152971544D01*
X128237188Y-152903624D01*
X128386488Y-152873927D01*
X128411258Y-152869000D01*
X128588742Y-152869000D01*
X128613512Y-152873927D01*
G37*
G36*
X126073512Y-152873927D02*
G01*
X126222812Y-152903624D01*
X126386784Y-152971544D01*
X126534354Y-153070147D01*
X126659853Y-153195646D01*
X126758456Y-153343216D01*
X126826376Y-153507188D01*
X126861000Y-153681259D01*
X126861000Y-153858741D01*
X126826376Y-154032812D01*
X126758456Y-154196784D01*
X126659853Y-154344354D01*
X126534354Y-154469853D01*
X126386784Y-154568456D01*
X126222812Y-154636376D01*
X126073512Y-154666073D01*
X126048742Y-154671000D01*
X125871258Y-154671000D01*
X125846488Y-154666073D01*
X125697188Y-154636376D01*
X125533216Y-154568456D01*
X125385646Y-154469853D01*
X125260147Y-154344354D01*
X125161544Y-154196784D01*
X125093624Y-154032812D01*
X125059000Y-153858741D01*
X125059000Y-153681259D01*
X125093624Y-153507188D01*
X125161544Y-153343216D01*
X125260147Y-153195646D01*
X125385646Y-153070147D01*
X125533216Y-152971544D01*
X125697188Y-152903624D01*
X125846488Y-152873927D01*
X125871258Y-152869000D01*
X126048742Y-152869000D01*
X126073512Y-152873927D01*
G37*
G36*
X123533512Y-152873927D02*
G01*
X123682812Y-152903624D01*
X123846784Y-152971544D01*
X123994354Y-153070147D01*
X124119853Y-153195646D01*
X124218456Y-153343216D01*
X124286376Y-153507188D01*
X124321000Y-153681259D01*
X124321000Y-153858741D01*
X124286376Y-154032812D01*
X124218456Y-154196784D01*
X124119853Y-154344354D01*
X123994354Y-154469853D01*
X123846784Y-154568456D01*
X123682812Y-154636376D01*
X123533512Y-154666073D01*
X123508742Y-154671000D01*
X123331258Y-154671000D01*
X123306488Y-154666073D01*
X123157188Y-154636376D01*
X122993216Y-154568456D01*
X122845646Y-154469853D01*
X122720147Y-154344354D01*
X122621544Y-154196784D01*
X122553624Y-154032812D01*
X122519000Y-153858741D01*
X122519000Y-153681259D01*
X122553624Y-153507188D01*
X122621544Y-153343216D01*
X122720147Y-153195646D01*
X122845646Y-153070147D01*
X122993216Y-152971544D01*
X123157188Y-152903624D01*
X123306488Y-152873927D01*
X123331258Y-152869000D01*
X123508742Y-152869000D01*
X123533512Y-152873927D01*
G37*
G36*
X120993512Y-152873927D02*
G01*
X121142812Y-152903624D01*
X121306784Y-152971544D01*
X121454354Y-153070147D01*
X121579853Y-153195646D01*
X121678456Y-153343216D01*
X121746376Y-153507188D01*
X121781000Y-153681259D01*
X121781000Y-153858741D01*
X121746376Y-154032812D01*
X121678456Y-154196784D01*
X121579853Y-154344354D01*
X121454354Y-154469853D01*
X121306784Y-154568456D01*
X121142812Y-154636376D01*
X120993512Y-154666073D01*
X120968742Y-154671000D01*
X120791258Y-154671000D01*
X120766488Y-154666073D01*
X120617188Y-154636376D01*
X120453216Y-154568456D01*
X120305646Y-154469853D01*
X120180147Y-154344354D01*
X120081544Y-154196784D01*
X120013624Y-154032812D01*
X119979000Y-153858741D01*
X119979000Y-153681259D01*
X120013624Y-153507188D01*
X120081544Y-153343216D01*
X120180147Y-153195646D01*
X120305646Y-153070147D01*
X120453216Y-152971544D01*
X120617188Y-152903624D01*
X120766488Y-152873927D01*
X120791258Y-152869000D01*
X120968742Y-152869000D01*
X120993512Y-152873927D01*
G37*
G36*
X119241000Y-154671000D02*
G01*
X117439000Y-154671000D01*
X117439000Y-152869000D01*
X119241000Y-152869000D01*
X119241000Y-154671000D01*
G37*
G36*
X131153512Y-152873927D02*
G01*
X131302812Y-152903624D01*
X131466784Y-152971544D01*
X131614354Y-153070147D01*
X131739853Y-153195646D01*
X131838456Y-153343216D01*
X131906376Y-153507188D01*
X131941000Y-153681259D01*
X131941000Y-153858741D01*
X131906376Y-154032812D01*
X131838456Y-154196784D01*
X131739853Y-154344354D01*
X131614354Y-154469853D01*
X131466784Y-154568456D01*
X131302812Y-154636376D01*
X131153512Y-154666073D01*
X131128742Y-154671000D01*
X130951258Y-154671000D01*
X130926488Y-154666073D01*
X130777188Y-154636376D01*
X130613216Y-154568456D01*
X130465646Y-154469853D01*
X130340147Y-154344354D01*
X130241544Y-154196784D01*
X130173624Y-154032812D01*
X130139000Y-153858741D01*
X130139000Y-153681259D01*
X130173624Y-153507188D01*
X130241544Y-153343216D01*
X130340147Y-153195646D01*
X130465646Y-153070147D01*
X130613216Y-152971544D01*
X130777188Y-152903624D01*
X130926488Y-152873927D01*
X130951258Y-152869000D01*
X131128742Y-152869000D01*
X131153512Y-152873927D01*
G37*
G36*
X131119591Y-149803085D02*
G01*
X131153569Y-149813393D01*
X131184890Y-149830134D01*
X131212339Y-149852661D01*
X131234866Y-149880110D01*
X131251607Y-149911431D01*
X131261915Y-149945409D01*
X131266000Y-149986890D01*
X131266000Y-150588110D01*
X131261915Y-150629591D01*
X131251607Y-150663569D01*
X131234866Y-150694890D01*
X131212339Y-150722339D01*
X131184890Y-150744866D01*
X131153569Y-150761607D01*
X131119591Y-150771915D01*
X131078110Y-150776000D01*
X130401890Y-150776000D01*
X130360409Y-150771915D01*
X130326431Y-150761607D01*
X130295110Y-150744866D01*
X130267661Y-150722339D01*
X130245134Y-150694890D01*
X130228393Y-150663569D01*
X130218085Y-150629591D01*
X130214000Y-150588110D01*
X130214000Y-149986890D01*
X130218085Y-149945409D01*
X130228393Y-149911431D01*
X130245134Y-149880110D01*
X130267661Y-149852661D01*
X130295110Y-149830134D01*
X130326431Y-149813393D01*
X130360409Y-149803085D01*
X130401890Y-149799000D01*
X131078110Y-149799000D01*
X131119591Y-149803085D01*
G37*
G36*
X119869591Y-149543085D02*
G01*
X119903569Y-149553393D01*
X119934890Y-149570134D01*
X119962339Y-149592661D01*
X119984866Y-149620110D01*
X120001607Y-149651431D01*
X120011915Y-149685409D01*
X120016000Y-149726890D01*
X120016000Y-150328110D01*
X120011915Y-150369591D01*
X120001607Y-150403569D01*
X119984866Y-150434890D01*
X119962339Y-150462339D01*
X119934890Y-150484866D01*
X119903569Y-150501607D01*
X119869591Y-150511915D01*
X119828110Y-150516000D01*
X119151890Y-150516000D01*
X119110409Y-150511915D01*
X119076431Y-150501607D01*
X119045110Y-150484866D01*
X119017661Y-150462339D01*
X118995134Y-150434890D01*
X118978393Y-150403569D01*
X118968085Y-150369591D01*
X118964000Y-150328110D01*
X118964000Y-149726890D01*
X118968085Y-149685409D01*
X118978393Y-149651431D01*
X118995134Y-149620110D01*
X119017661Y-149592661D01*
X119045110Y-149570134D01*
X119076431Y-149553393D01*
X119110409Y-149543085D01*
X119151890Y-149539000D01*
X119828110Y-149539000D01*
X119869591Y-149543085D01*
G37*
G36*
X131119591Y-148228085D02*
G01*
X131153569Y-148238393D01*
X131184890Y-148255134D01*
X131212339Y-148277661D01*
X131234866Y-148305110D01*
X131251607Y-148336431D01*
X131261915Y-148370409D01*
X131266000Y-148411890D01*
X131266000Y-149013110D01*
X131261915Y-149054591D01*
X131251607Y-149088569D01*
X131234866Y-149119890D01*
X131212339Y-149147339D01*
X131184890Y-149169866D01*
X131153569Y-149186607D01*
X131119591Y-149196915D01*
X131078110Y-149201000D01*
X130401890Y-149201000D01*
X130360409Y-149196915D01*
X130326431Y-149186607D01*
X130295110Y-149169866D01*
X130267661Y-149147339D01*
X130245134Y-149119890D01*
X130228393Y-149088569D01*
X130218085Y-149054591D01*
X130214000Y-149013110D01*
X130214000Y-148411890D01*
X130218085Y-148370409D01*
X130228393Y-148336431D01*
X130245134Y-148305110D01*
X130267661Y-148277661D01*
X130295110Y-148255134D01*
X130326431Y-148238393D01*
X130360409Y-148228085D01*
X130401890Y-148224000D01*
X131078110Y-148224000D01*
X131119591Y-148228085D01*
G37*
G36*
X119869591Y-147968085D02*
G01*
X119903569Y-147978393D01*
X119934890Y-147995134D01*
X119962339Y-148017661D01*
X119984866Y-148045110D01*
X120001607Y-148076431D01*
X120011915Y-148110409D01*
X120016000Y-148151890D01*
X120016000Y-148753110D01*
X120011915Y-148794591D01*
X120001607Y-148828569D01*
X119984866Y-148859890D01*
X119962339Y-148887339D01*
X119934890Y-148909866D01*
X119903569Y-148926607D01*
X119869591Y-148936915D01*
X119828110Y-148941000D01*
X119151890Y-148941000D01*
X119110409Y-148936915D01*
X119076431Y-148926607D01*
X119045110Y-148909866D01*
X119017661Y-148887339D01*
X118995134Y-148859890D01*
X118978393Y-148828569D01*
X118968085Y-148794591D01*
X118964000Y-148753110D01*
X118964000Y-148151890D01*
X118968085Y-148110409D01*
X118978393Y-148076431D01*
X118995134Y-148045110D01*
X119017661Y-148017661D01*
X119045110Y-147995134D01*
X119076431Y-147978393D01*
X119110409Y-147968085D01*
X119151890Y-147964000D01*
X119828110Y-147964000D01*
X119869591Y-147968085D01*
G37*
G36*
X124561000Y-147079001D02*
G01*
X124563402Y-147103387D01*
X124570515Y-147126836D01*
X124582066Y-147148447D01*
X124597611Y-147167389D01*
X124616553Y-147182934D01*
X124638164Y-147194485D01*
X124661613Y-147201598D01*
X124685999Y-147204000D01*
X124734001Y-147204000D01*
X124758387Y-147201598D01*
X124781836Y-147194485D01*
X124803447Y-147182934D01*
X124822389Y-147167389D01*
X124837934Y-147148447D01*
X124849485Y-147126836D01*
X124856598Y-147103387D01*
X124859000Y-147079001D01*
X124859000Y-146529000D01*
X125211000Y-146529000D01*
X125211000Y-147079001D01*
X125213402Y-147103387D01*
X125220515Y-147126836D01*
X125232066Y-147148447D01*
X125247611Y-147167389D01*
X125266553Y-147182934D01*
X125288164Y-147194485D01*
X125311613Y-147201598D01*
X125335999Y-147204000D01*
X125384001Y-147204000D01*
X125408387Y-147201598D01*
X125431836Y-147194485D01*
X125453447Y-147182934D01*
X125472389Y-147167389D01*
X125487934Y-147148447D01*
X125499485Y-147126836D01*
X125506598Y-147103387D01*
X125509000Y-147079001D01*
X125509000Y-146529000D01*
X125861000Y-146529000D01*
X125861000Y-147041672D01*
X125841553Y-147052066D01*
X125822611Y-147067611D01*
X125807066Y-147086553D01*
X125795515Y-147108164D01*
X125788402Y-147131613D01*
X125786000Y-147155999D01*
X125786000Y-148004001D01*
X125788402Y-148028387D01*
X125795515Y-148051836D01*
X125807066Y-148073447D01*
X125822611Y-148092389D01*
X125841553Y-148107934D01*
X125861000Y-148118328D01*
X125861000Y-148631000D01*
X125509000Y-148631000D01*
X125509000Y-148080999D01*
X125506598Y-148056613D01*
X125499485Y-148033164D01*
X125487934Y-148011553D01*
X125472389Y-147992611D01*
X125453447Y-147977066D01*
X125431836Y-147965515D01*
X125408387Y-147958402D01*
X125384001Y-147956000D01*
X125335999Y-147956000D01*
X125311613Y-147958402D01*
X125288164Y-147965515D01*
X125266553Y-147977066D01*
X125247611Y-147992611D01*
X125232066Y-148011553D01*
X125220515Y-148033164D01*
X125213402Y-148056613D01*
X125211000Y-148080999D01*
X125211000Y-148631000D01*
X124859000Y-148631000D01*
X124859000Y-148080999D01*
X124856598Y-148056613D01*
X124849485Y-148033164D01*
X124837934Y-148011553D01*
X124822389Y-147992611D01*
X124803447Y-147977066D01*
X124781836Y-147965515D01*
X124758387Y-147958402D01*
X124734001Y-147956000D01*
X124685999Y-147956000D01*
X124661613Y-147958402D01*
X124638164Y-147965515D01*
X124616553Y-147977066D01*
X124597611Y-147992611D01*
X124582066Y-148011553D01*
X124570515Y-148033164D01*
X124563402Y-148056613D01*
X124561000Y-148080999D01*
X124561000Y-148631000D01*
X124209000Y-148631000D01*
X124209000Y-148078241D01*
X124212934Y-148073447D01*
X124224485Y-148051836D01*
X124231598Y-148028387D01*
X124234000Y-148004001D01*
X124234000Y-147155999D01*
X124231598Y-147131613D01*
X124224485Y-147108164D01*
X124212934Y-147086553D01*
X124209000Y-147081759D01*
X124209000Y-146529000D01*
X124561000Y-146529000D01*
X124561000Y-147079001D01*
G37*
M02*
