G04 #@! TF.GenerationSoftware,KiCad,Pcbnew,(5.1.5)-3*
G04 #@! TF.CreationDate,2020-05-16T18:01:42+03:00*
G04 #@! TF.ProjectId,STTS22H_Breakout_Board,53545453-3232-4485-9f42-7265616b6f75,rev?*
G04 #@! TF.SameCoordinates,Original*
G04 #@! TF.FileFunction,Legend,Top*
G04 #@! TF.FilePolarity,Positive*
%FSLAX46Y46*%
G04 Gerber Fmt 4.6, Leading zero omitted, Abs format (unit mm)*
G04 Created by KiCad (PCBNEW (5.1.5)-3) date 2020-05-16 18:01:42*
%MOMM*%
%LPD*%
G04 APERTURE LIST*
%ADD10C,0.150000*%
%ADD11C,0.120000*%
G04 APERTURE END LIST*
D10*
X137222380Y-154201428D02*
X137222380Y-154772857D01*
X137222380Y-154487142D02*
X136222380Y-154487142D01*
X136365238Y-154582380D01*
X136460476Y-154677619D01*
X136508095Y-154772857D01*
X136222380Y-153582380D02*
X136222380Y-153487142D01*
X136270000Y-153391904D01*
X136317619Y-153344285D01*
X136412857Y-153296666D01*
X136603333Y-153249047D01*
X136841428Y-153249047D01*
X137031904Y-153296666D01*
X137127142Y-153344285D01*
X137174761Y-153391904D01*
X137222380Y-153487142D01*
X137222380Y-153582380D01*
X137174761Y-153677619D01*
X137127142Y-153725238D01*
X137031904Y-153772857D01*
X136841428Y-153820476D01*
X136603333Y-153820476D01*
X136412857Y-153772857D01*
X136317619Y-153725238D01*
X136270000Y-153677619D01*
X136222380Y-153582380D01*
X137127142Y-152820476D02*
X137174761Y-152772857D01*
X137222380Y-152820476D01*
X137174761Y-152868095D01*
X137127142Y-152820476D01*
X137222380Y-152820476D01*
X136222380Y-152439523D02*
X136222380Y-151772857D01*
X137222380Y-152201428D01*
X136222380Y-151201428D02*
X136222380Y-151106190D01*
X136270000Y-151010952D01*
X136317619Y-150963333D01*
X136412857Y-150915714D01*
X136603333Y-150868095D01*
X136841428Y-150868095D01*
X137031904Y-150915714D01*
X137127142Y-150963333D01*
X137174761Y-151010952D01*
X137222380Y-151106190D01*
X137222380Y-151201428D01*
X137174761Y-151296666D01*
X137127142Y-151344285D01*
X137031904Y-151391904D01*
X136841428Y-151439523D01*
X136603333Y-151439523D01*
X136412857Y-151391904D01*
X136317619Y-151344285D01*
X136270000Y-151296666D01*
X136222380Y-151201428D01*
X136222380Y-150249047D02*
X136222380Y-150153809D01*
X136270000Y-150058571D01*
X136317619Y-150010952D01*
X136412857Y-149963333D01*
X136603333Y-149915714D01*
X136841428Y-149915714D01*
X137031904Y-149963333D01*
X137127142Y-150010952D01*
X137174761Y-150058571D01*
X137222380Y-150153809D01*
X137222380Y-150249047D01*
X137174761Y-150344285D01*
X137127142Y-150391904D01*
X137031904Y-150439523D01*
X136841428Y-150487142D01*
X136603333Y-150487142D01*
X136412857Y-150439523D01*
X136317619Y-150391904D01*
X136270000Y-150344285D01*
X136222380Y-150249047D01*
X137222380Y-148725238D02*
X136555714Y-148725238D01*
X136650952Y-148725238D02*
X136603333Y-148677619D01*
X136555714Y-148582380D01*
X136555714Y-148439523D01*
X136603333Y-148344285D01*
X136698571Y-148296666D01*
X137222380Y-148296666D01*
X136698571Y-148296666D02*
X136603333Y-148249047D01*
X136555714Y-148153809D01*
X136555714Y-148010952D01*
X136603333Y-147915714D01*
X136698571Y-147868095D01*
X137222380Y-147868095D01*
X137222380Y-147391904D02*
X136555714Y-147391904D01*
X136650952Y-147391904D02*
X136603333Y-147344285D01*
X136555714Y-147249047D01*
X136555714Y-147106190D01*
X136603333Y-147010952D01*
X136698571Y-146963333D01*
X137222380Y-146963333D01*
X136698571Y-146963333D02*
X136603333Y-146915714D01*
X136555714Y-146820476D01*
X136555714Y-146677619D01*
X136603333Y-146582380D01*
X136698571Y-146534761D01*
X137222380Y-146534761D01*
D11*
X135500000Y-155980000D02*
X135500000Y-145280000D01*
X133980000Y-155980000D02*
X136086421Y-155980000D01*
X133980000Y-145280000D02*
X136086421Y-145280000D01*
X135500000Y-145280000D02*
X136086421Y-146406504D01*
X135500000Y-145280000D02*
X134913579Y-146406504D01*
X135500000Y-155980000D02*
X136086421Y-154853496D01*
X135500000Y-155980000D02*
X134913579Y-154853496D01*
D10*
X120894190Y-160294669D02*
X120322766Y-160296767D01*
X120608478Y-160295718D02*
X120604805Y-159295725D01*
X120510093Y-159438931D01*
X120415205Y-159534518D01*
X120320142Y-159582487D01*
X121370378Y-160292920D02*
X121560853Y-160292220D01*
X121655915Y-160244252D01*
X121703359Y-160196458D01*
X121798072Y-160053252D01*
X121844991Y-159862603D01*
X121843592Y-159481653D01*
X121795623Y-159386590D01*
X121747830Y-159339146D01*
X121652417Y-159291877D01*
X121461943Y-159292577D01*
X121366880Y-159340545D01*
X121319436Y-159388339D01*
X121272167Y-159483751D01*
X121273042Y-159721845D01*
X121321010Y-159816908D01*
X121368804Y-159864351D01*
X121464216Y-159911620D01*
X121654691Y-159910921D01*
X121749754Y-159862952D01*
X121797197Y-159815159D01*
X121844466Y-159719746D01*
X122274784Y-160194360D02*
X122322577Y-160241804D01*
X122275133Y-160289597D01*
X122227340Y-160242153D01*
X122274784Y-160194360D01*
X122275133Y-160289597D01*
X122938123Y-159287155D02*
X123033361Y-159286806D01*
X123128773Y-159334075D01*
X123176566Y-159381518D01*
X123224535Y-159476581D01*
X123272853Y-159666881D01*
X123273728Y-159904975D01*
X123226808Y-160095625D01*
X123179540Y-160191037D01*
X123132096Y-160238830D01*
X123037033Y-160286799D01*
X122941796Y-160287149D01*
X122846383Y-160239880D01*
X122798590Y-160192436D01*
X122750621Y-160097373D01*
X122702303Y-159907073D01*
X122701429Y-159668980D01*
X122748348Y-159478330D01*
X122795617Y-159382918D01*
X122843061Y-159335124D01*
X122938123Y-159287155D01*
X124128591Y-159282783D02*
X123938116Y-159283483D01*
X123843054Y-159331451D01*
X123795610Y-159379245D01*
X123700897Y-159522451D01*
X123653978Y-159713101D01*
X123655377Y-160094051D01*
X123703346Y-160189113D01*
X123751139Y-160236557D01*
X123846551Y-160283826D01*
X124037026Y-160283126D01*
X124132089Y-160235158D01*
X124179533Y-160187364D01*
X124226802Y-160091952D01*
X124225927Y-159853858D01*
X124177959Y-159758796D01*
X124130165Y-159711352D01*
X124034753Y-159664083D01*
X123844278Y-159664782D01*
X123749215Y-159712751D01*
X123701772Y-159760545D01*
X123654503Y-159855957D01*
X124842872Y-159280160D02*
X124938110Y-159279810D01*
X125033522Y-159327079D01*
X125081316Y-159374523D01*
X125129284Y-159469586D01*
X125177602Y-159659886D01*
X125178477Y-159897979D01*
X125131558Y-160088629D01*
X125084289Y-160184041D01*
X125036845Y-160231835D01*
X124941782Y-160279804D01*
X124846545Y-160280153D01*
X124751132Y-160232884D01*
X124703339Y-160185441D01*
X124655370Y-160090378D01*
X124607052Y-159900078D01*
X124606178Y-159661984D01*
X124653097Y-159471335D01*
X124700366Y-159375922D01*
X124747810Y-159328129D01*
X124842872Y-159280160D01*
X126370344Y-160274557D02*
X126367896Y-159607895D01*
X126368245Y-159703132D02*
X126415689Y-159655339D01*
X126510752Y-159607370D01*
X126653608Y-159606846D01*
X126749020Y-159654114D01*
X126796989Y-159749177D01*
X126798913Y-160272983D01*
X126796989Y-159749177D02*
X126844258Y-159653765D01*
X126939320Y-159605796D01*
X127082176Y-159605272D01*
X127177589Y-159652541D01*
X127225557Y-159747603D01*
X127227481Y-160271409D01*
X127703668Y-160269660D02*
X127701220Y-159602998D01*
X127701570Y-159698235D02*
X127749014Y-159650442D01*
X127844076Y-159602473D01*
X127986932Y-159601949D01*
X128082345Y-159649218D01*
X128130313Y-159744280D01*
X128132237Y-160268086D01*
X128130313Y-159744280D02*
X128177582Y-159648868D01*
X128272645Y-159600899D01*
X128415501Y-159600375D01*
X128510913Y-159647644D01*
X128558882Y-159742706D01*
X128560805Y-160266512D01*
D11*
X133989270Y-158524184D02*
X114929270Y-158594184D01*
X133980000Y-156000000D02*
X133991424Y-159110601D01*
X114920000Y-156070000D02*
X114931424Y-159180601D01*
X114929270Y-158594184D02*
X116053612Y-158003630D01*
X114929270Y-158594184D02*
X116057920Y-159176464D01*
X133989270Y-158524184D02*
X132860620Y-157941904D01*
X133989270Y-158524184D02*
X132864928Y-159114738D01*
D10*
X130308095Y-151310000D02*
X130212857Y-151262380D01*
X130070000Y-151262380D01*
X129927142Y-151310000D01*
X129831904Y-151405238D01*
X129784285Y-151500476D01*
X129736666Y-151690952D01*
X129736666Y-151833809D01*
X129784285Y-152024285D01*
X129831904Y-152119523D01*
X129927142Y-152214761D01*
X130070000Y-152262380D01*
X130165238Y-152262380D01*
X130308095Y-152214761D01*
X130355714Y-152167142D01*
X130355714Y-151833809D01*
X130165238Y-151833809D01*
X130784285Y-152262380D02*
X130784285Y-151262380D01*
X131355714Y-152262380D01*
X131355714Y-151262380D01*
X131831904Y-152262380D02*
X131831904Y-151262380D01*
X132070000Y-151262380D01*
X132212857Y-151310000D01*
X132308095Y-151405238D01*
X132355714Y-151500476D01*
X132403333Y-151690952D01*
X132403333Y-151833809D01*
X132355714Y-152024285D01*
X132308095Y-152119523D01*
X132212857Y-152214761D01*
X132070000Y-152262380D01*
X131831904Y-152262380D01*
X125020000Y-151906666D02*
X125496190Y-151906666D01*
X124924761Y-152192380D02*
X125258095Y-151192380D01*
X125591428Y-152192380D01*
X126639047Y-151144761D02*
X125781904Y-152430476D01*
X126972380Y-152192380D02*
X126972380Y-151192380D01*
X119749523Y-152144761D02*
X119892380Y-152192380D01*
X120130476Y-152192380D01*
X120225714Y-152144761D01*
X120273333Y-152097142D01*
X120320952Y-152001904D01*
X120320952Y-151906666D01*
X120273333Y-151811428D01*
X120225714Y-151763809D01*
X120130476Y-151716190D01*
X119940000Y-151668571D01*
X119844761Y-151620952D01*
X119797142Y-151573333D01*
X119749523Y-151478095D01*
X119749523Y-151382857D01*
X119797142Y-151287619D01*
X119844761Y-151240000D01*
X119940000Y-151192380D01*
X120178095Y-151192380D01*
X120320952Y-151240000D01*
X121320952Y-152097142D02*
X121273333Y-152144761D01*
X121130476Y-152192380D01*
X121035238Y-152192380D01*
X120892380Y-152144761D01*
X120797142Y-152049523D01*
X120749523Y-151954285D01*
X120701904Y-151763809D01*
X120701904Y-151620952D01*
X120749523Y-151430476D01*
X120797142Y-151335238D01*
X120892380Y-151240000D01*
X121035238Y-151192380D01*
X121130476Y-151192380D01*
X121273333Y-151240000D01*
X121320952Y-151287619D01*
X122225714Y-152192380D02*
X121749523Y-152192380D01*
X121749523Y-151192380D01*
D11*
X124035000Y-148580000D02*
X124035000Y-146580000D01*
X124035000Y-146580000D02*
X124035000Y-146555000D01*
X124035000Y-146555000D02*
X124035000Y-146530000D01*
X124035000Y-146530000D02*
X126085000Y-146530000D01*
X126085000Y-146530000D02*
X126085000Y-148605000D01*
X126085000Y-148605000D02*
X126085000Y-148630000D01*
X126085000Y-148630000D02*
X124035000Y-148630000D01*
X132370000Y-155100000D02*
X132370000Y-152440000D01*
X119610000Y-155100000D02*
X132370000Y-155100000D01*
X119610000Y-152440000D02*
X132370000Y-152440000D01*
X119610000Y-155100000D02*
X119610000Y-152440000D01*
X118340000Y-155100000D02*
X117010000Y-155100000D01*
X117010000Y-155100000D02*
X117010000Y-153770000D01*
X120000000Y-149402779D02*
X120000000Y-149077221D01*
X118980000Y-149402779D02*
X118980000Y-149077221D01*
X131250000Y-149337221D02*
X131250000Y-149662779D01*
X130230000Y-149337221D02*
X130230000Y-149662779D01*
D10*
X123983809Y-149907380D02*
X123983809Y-148907380D01*
X125031428Y-149812142D02*
X124983809Y-149859761D01*
X124840952Y-149907380D01*
X124745714Y-149907380D01*
X124602857Y-149859761D01*
X124507619Y-149764523D01*
X124460000Y-149669285D01*
X124412380Y-149478809D01*
X124412380Y-149335952D01*
X124460000Y-149145476D01*
X124507619Y-149050238D01*
X124602857Y-148955000D01*
X124745714Y-148907380D01*
X124840952Y-148907380D01*
X124983809Y-148955000D01*
X125031428Y-149002619D01*
X125983809Y-149907380D02*
X125412380Y-149907380D01*
X125698095Y-149907380D02*
X125698095Y-148907380D01*
X125602857Y-149050238D01*
X125507619Y-149145476D01*
X125412380Y-149193095D01*
X115462380Y-154103333D02*
X116176666Y-154103333D01*
X116319523Y-154150952D01*
X116414761Y-154246190D01*
X116462380Y-154389047D01*
X116462380Y-154484285D01*
X116462380Y-153103333D02*
X116462380Y-153674761D01*
X116462380Y-153389047D02*
X115462380Y-153389047D01*
X115605238Y-153484285D01*
X115700476Y-153579523D01*
X115748095Y-153674761D01*
X118512380Y-150025714D02*
X117512380Y-150025714D01*
X117512380Y-149644761D01*
X117560000Y-149549523D01*
X117607619Y-149501904D01*
X117702857Y-149454285D01*
X117845714Y-149454285D01*
X117940952Y-149501904D01*
X117988571Y-149549523D01*
X118036190Y-149644761D01*
X118036190Y-150025714D01*
X117512380Y-149025714D02*
X118321904Y-149025714D01*
X118417142Y-148978095D01*
X118464761Y-148930476D01*
X118512380Y-148835238D01*
X118512380Y-148644761D01*
X118464761Y-148549523D01*
X118417142Y-148501904D01*
X118321904Y-148454285D01*
X117512380Y-148454285D01*
X132622380Y-150285714D02*
X131622380Y-150285714D01*
X131622380Y-149904761D01*
X131670000Y-149809523D01*
X131717619Y-149761904D01*
X131812857Y-149714285D01*
X131955714Y-149714285D01*
X132050952Y-149761904D01*
X132098571Y-149809523D01*
X132146190Y-149904761D01*
X132146190Y-150285714D01*
X131622380Y-149285714D02*
X132431904Y-149285714D01*
X132527142Y-149238095D01*
X132574761Y-149190476D01*
X132622380Y-149095238D01*
X132622380Y-148904761D01*
X132574761Y-148809523D01*
X132527142Y-148761904D01*
X132431904Y-148714285D01*
X131622380Y-148714285D01*
M02*
